<?xml version="1.0" encoding="utf-8"?>
<!-- Generator: Adobe Illustrator 19.0.0, SVG Export Plug-In . SVG Version: 6.00 Build 0)  -->
<svg version="1.1" id="Calque_1" xmlns="http://www.w3.org/2000/svg" xmlns:xlink="http://www.w3.org/1999/xlink" x="0px" y="0px"
	 viewBox="0 0 79.4 86.9" style="enable-background:new 0 0 79.4 86.9;" xml:space="preserve">
<style type="text/css">
	.st0{fill:none;stroke:#E8441E;stroke-width:3;stroke-linecap:round;stroke-linejoin:round;stroke-miterlimit:10;}
</style>
<g id="XMLID_14_">
	<path id="XMLID_19_" class="st0" d="M38.4,69c-0.8,0.1-1.6,0.1-2.5,0.1c-15.2,0-27.5-12.3-27.5-27.5C8.4,26.3,20.7,14,36,14
		c15.2,0,27.5,12.3,27.5,27.5c0,0.8,0,1.6-0.1,2.5"/>
	<path id="XMLID_18_" class="st0" d="M36.4,57.1c-0.2,0-0.3,0-0.5,0c-8.6,0-15.6-7-15.6-15.6c0-8.6,7-15.6,15.6-15.6
		s15.6,7,15.6,15.6c0,0.2,0,0.3,0,0.5"/>
	<circle id="XMLID_17_" class="st0" cx="36" cy="41.5" r="3.6"/>
	<line id="XMLID_16_" class="st0" x1="68.4" y1="74" x2="44.3" y2="49.9"/>
	<polyline id="XMLID_15_" class="st0" points="61.6,51.5 44.3,49.9 45.7,67.3 	"/>
</g>
</svg>
