<?xml version="1.0" encoding="utf-8"?>
<!-- Generator: Adobe Illustrator 17.0.0, SVG Export Plug-In . SVG Version: 6.00 Build 0)  -->
<!DOCTYPE svg PUBLIC "-//W3C//DTD SVG 1.1//EN" "http://www.w3.org/Graphics/SVG/1.1/DTD/svg11.dtd">
<svg version="1.1" id="Calque_1" xmlns="http://www.w3.org/2000/svg" xmlns:xlink="http://www.w3.org/1999/xlink" x="0px" y="0px"
	 width="146px" height="143.5px" viewBox="0 0 146 143.5" enable-background="new 0 0 146 143.5" xml:space="preserve">
<path fill="#FFFFFF" d="M113.94,103.464c-0.552,0-1-0.448-1-1V58.456c0-0.552,0.448-1,1-1h8.892L109.07,43.522
	c-0.185-0.187-0.289-0.439-0.289-0.703V25.25H97.557v4.178c0,0.406-0.245,0.771-0.62,0.925c-0.376,0.153-0.806,0.066-1.091-0.223
	L73.729,7.735L23.99,57.844h8.819c0.552,0,1,0.448,1,1v43.62c0,0.552-0.448,1-1,1s-1-0.448-1-1v-42.62h-10.22
	c-0.404,0-0.768-0.243-0.923-0.616c-0.155-0.373-0.071-0.802,0.213-1.089L73.021,5.609c0.188-0.189,0.493-0.292,0.711-0.295
	c0.267,0,0.522,0.107,0.71,0.297l21.115,21.381V24.25c0-0.552,0.448-1,1-1h13.225c0.552,0,1,0.448,1,1v18.159l15.155,15.345
	c0.284,0.287,0.367,0.716,0.211,1.088c-0.156,0.372-0.52,0.614-0.923,0.614H114.94v43.008
	C114.94,103.016,114.492,103.464,113.94,103.464z"/>
<path fill="#FFFFFF" d="M21.487,83.975c0.457-0.263,0.759-0.382,1.453-0.915c0.273,0.182,1.445,0.285,1.518-0.087
	c0.634-0.047,1.121-0.047,2.959,0.18c1.838,0.226,2.326,0.635,4.372,0.773c2.816,0.099,4.208-0.143,5.9-0.445
	c1.692-0.304,2.186-0.511,2.765-0.934c0.319-0.082,0.978-0.188,1.7-0.525c0.724-0.346,1.91-1.062,2.609-1.278
	c0.7-0.21,1.058-0.256,2.854-1.715c0.593,1.018,0.74,1.489,0.934,2.209c0.198,0.717,0.568,1.682,0.568,1.682s-0.087,1.64-0.04,2.801
	c0.042,1.161,0.068,1.41,0.268,2.066c-0.208,0.064-0.165,0.384-0.098,0.555c0.042,0.412,0.505,1.775,0.73,2.23
	c0.226,0.457,0.179,1.593,1.169,3.428c-0.116,0.556-0.089,0.764,0.219,1.003c0.304,0.235,0.438,0.291,0.438,0.291
	s0.02,0.788-0.187,1.25c-0.201,0.456-0.265,1.017-0.292,1.255c-0.397,0.545-0.984,1.267-1.678,2.211
	c-0.694,0.943-1.088,1.522-1.117,1.747c-0.023,0.184-0.312,0.56-0.463,1.124h26.408c-0.001-0.003-0.002-0.005-0.004-0.007
	c0.004-1.08-0.523-3.231-2.586-5.202c0.01-0.264-0.054-0.564-0.379-0.857c-0.055-0.431-0.3-0.889-0.3-0.889s0.071-0.314,0.017-0.429
	c-0.185-0.062-0.475-0.653-0.519-0.92c0.346-0.321,0.749-0.547,0.051-0.837c0.451-0.578,0.684-0.794,0.375-1.44
	c0.404-0.73,0.563-2.329,0.579-2.738c0.287-0.625,0.469-0.728,0.469-0.952c-0.003-0.412,0.321-0.546,0.032-0.768
	c0.071-0.87,0.176-1.575,0.089-3.112c-0.085-1.536-0.154-2.583-0.154-2.583s0.1-0.575,0.393-1.402
	c0.297-0.825,0.496-1.622,0.673-1.875c0.563,0.432,0.769,0.815,1.993,1.48c1.224,0.667,1.47,0.621,2.568,1.155
	c1.097,0.525,1.603,0.903,3.148,1.116c0.734,0.626,1.496,1.233,2.25,1.529c0.898,0.334,1.966,0.789,2.072,0.927
	c0.102,0.13,0.42,0.128,1.641,0.418c1.224,0.296,1.863,0.581,2.771,0.694c0.912,0.109,2.31,0.188,2.928,0.137
	c0.911,0.17,1.503,0.267,2.229,0.24c-0.019,0.428-0.227,0.533,0.112,0.903c0.051,0.635,0.215,0.756,0.465,0.971
	c0.25,0.217,0.25,0.27,0.479,0.096c0.233-0.181,0.267-0.496-0.146-0.98c0.052-0.369,0.043-0.576,0.043-0.576
	s0.224,0.048,0.387,0.129c0.318,0.012,0.84,0.032,0.84,0.032s0.742-0.378,1.254-1.479c0.81-0.507,1.654-1.162,2.02-2.396
	c0.18-0.742,0.101-1.549,0.028-2.018c-0.077-0.47-0.058-0.413,0.103-0.67c0.16-0.253,0.418-0.674,0.119-1.059
	c-0.301-0.383-0.504-0.376-0.85-0.237c-0.211,0.086-0.471,0.556-0.59,0.741c-0.119,0.179-0.082,0.609-0.082,0.609
	s-0.458,0.264-0.516,0.653c-0.423-0.071-0.414-0.243-0.732-0.272c-0.317-0.034-0.578-0.008-0.742,0.322
	c-0.16,0.332-0.008,0.712-0.09,0.855c-0.271,0.179-0.418,0.189-0.418,0.189s-1.221-0.199-1.902-0.544
	c-0.673-0.35-1.32-0.578-1.422-0.396c-0.569-0.151-1.303-0.539-1.798-0.711c-0.65-0.584-1.068-0.826-1.58-1.051
	c-0.706-0.517-1.769-1.531-2.972-1.803c-1.979-0.475-2.15-0.352-2.914-0.848c-0.764-0.499-1.162-0.814-2.135-1.226
	c-1.239-0.684-2.511-1.503-2.732-2.131c-0.279-0.809-0.482-1.846-1.493-3.158c-1.01-1.314-2.021-2.231-3.211-2.746
	c-1.189-0.517-1.705-0.274-2.263-0.317c-0.552-0.118-0.684-0.175-1.227-0.164c-0.457-0.221-1.007-0.396-1.007-0.396
	s0.032-0.406-0.32-0.459c-0.251-0.217-0.251-0.233-0.251-0.233s-0.075,0.033-0.333-0.11c-0.254-0.139-0.292-0.123-0.306-0.253
	c-0.278-0.049-0.333-0.069-0.46-0.13c-0.131-0.065-0.467-0.02-0.618,0.029c-0.218-0.196-1.451-0.564-2.073-0.85
	c-0.624-0.288-1.313-0.838-1.313-0.838s0.419-0.579,0.654-1.319c0.233-0.737,0.754-1.554,0.872-2.147
	c0.115-0.593,0.259-1.314,0.403-1.685c0.148-0.367,0.391-0.804,0.42-1.569c0.033-0.765,0.024-1.566,0.121-2.046
	c0.182-0.348,0.115-0.578-0.009-0.69c0.027-0.654,0.024-1.03,0.07-1.306c0.051-0.28,0.06-0.988,0.06-0.988s0.266-0.102-0.003-0.409
	c0.013-0.302,0.058-0.464,0.058-0.464l0.236,0.587c0,0-0.101-0.679-0.054-0.883c0.203-0.024,0.183-0.401,0.079-0.555
	c-0.046-0.283-0.025-0.336-0.188-0.454c-0.062-0.265,0.034-0.299,0.034-0.299s0.161,0.121,0.172,0.233
	c0.018,0.114,0.18,0.173,0.18,0.173l0.053,0.523c0,0,0.073-0.387,0.064-0.594c-0.012-0.206-0.1-0.733-0.48-1.046
	c0.255,0.065,0.584,0.734,0.584,0.734s-0.032-0.562-0.763-1.001c-0.114-0.34-0.412-0.373-0.412-0.373s-0.179-0.229-0.417-0.294
	c-0.011-0.15-0.229-0.35-0.229-0.35s0.011-0.26-0.207-0.416c-0.1-0.266-0.241-0.46-0.241-0.46s-0.086,0.236-0.246,0.047
	c-0.05-0.079-0.101-0.284-0.101-0.284s-0.31-0.107-0.457-0.207c-0.039-0.375-0.223-0.495-0.569-0.638
	c-0.227-0.01-0.462-0.152-0.628-0.271c-0.162-0.113-0.725-0.439-0.898-0.334c-0.387-0.108-0.884-0.279-1.206-0.219
	c-0.562,0.016-0.559-0.058-0.72-0.101c-0.304,0.08-0.528,0.071-0.733,0.061c-0.179-0.17-1.16,0.068-2.013,0.366
	c-0.851,0.303-1.607,0.981-2.176,1.182c-0.45,0.091-0.792,0.226-0.792,0.226s0.375-0.077,0.485-0.032
	c-0.347,0.3-0.594,0.44-0.774,0.654c0.327-0.153-0.027,0.266-0.027,0.266l0.262-0.048c0,0-0.518,0.277-0.483,0.466
	c0.161,0.118-0.269,0.624-0.269,0.624l0.34-0.134c0,0-0.197,0.288-0.303,0.601c0.165,0.024-0.122,0.651-0.15,0.911
	c-0.031,0.257-0.061,0.558-0.161,0.664c0.189-0.012,0.127,0.171,0.097,0.415c-0.03,0.241-0.132,0.406-0.132,0.406l0.229-0.029
	c0,0-0.037,0.372-0.206,0.458c0.225-0.008,0.084,0.247,0.084,0.247s0.238,0.065,0.043,0.282c0.145,0.136,0.038,0.485,0.038,0.485
	s0.245-0.1,0.036,0.433c-0.364,0.708-0.479,1.267-0.297,1.796c0.185,0.533,0.318,1.378,0.526,1.723
	c0.389,0.592,0.379,0.781,0.976,0.842c0.456,0.728,0.537,1.421,0.691,3.166c0.153,1.743,0.193,2.994-0.178,3.892
	c-0.273,0.797-0.932,0.861-1.729,1.236c-0.357-0.015-0.583,0.108-0.74,0.194c-0.187-0.021-0.42,0.265-0.591,0.313
	c-0.349-0.087-0.679,0.178-0.76,0.322c-0.247,0.067-0.477,0.282-0.506,0.523c-0.456,0.282-0.685,0.364-1.024,0.423
	c-0.338,0.06-0.545,0.092-0.734,0.177c-0.281-0.012-0.471,0.091-1.107,0.102c-0.635,0.011-1.759,0.081-3.208,1.27
	c-1.45,1.191-2.392,2.909-2.6,3.798c-0.203,0.886-0.267,1.072-0.267,1.072s0.011,0.222-0.582,0.48
	c-0.589,0.251-2.486,1.09-3.253,1.492c-0.569,0.29-0.937,0.091-2.524,0.139c-1.59,0.047-2.674,0.581-3.55,0.973
	c-0.875,0.393-1.317,0.674-1.734,0.823c-0.413,0.153-1.09,0.238-1.352,0.227c-0.618,0.067-0.984-0.059-1.532,0.03
	c-0.545,0.09-1.069,0.198-1.543,0.291c-0.468,0.094-0.674,0.064-0.952,0.092c-0.282,0.027-1.181,0.084-1.417-0.038
	c-0.273-0.183-1.249-1.339-1.604-1.41c-0.243-0.047-0.456-0.28-0.632-0.476c-0.18-0.193-0.327-0.275-0.454-0.354
	c-0.127-0.077-0.46-0.599-0.46-0.599s0.082-0.18-0.245-0.42c-0.432-0.407-0.506-0.805-0.912-0.934
	c-0.408-0.129-0.78,0.194-0.709,0.831c0.029,0.243,0.434,0.877,0.648,1.036c0.124,0.154,0.195,0.289,0.195,0.289
	s-0.35,0.338-0.174,0.607c0.174,0.27,0.301,0.349,0.452,0.338c0.092,0.506-0.088,0.832,0.117,1.274
	c-0.384,0.133-0.652,0.436-0.39,0.825c0.266,0.384,0.436,0.353,0.815,0.141c0.211,0.385,0.566,0.847,0.566,0.847
	s-0.309,0.193-0.558,0.334c-0.247,0.137-0.382,0.188-0.607,0.253c-0.226,0.067-0.52,0.315-0.841,0.45
	c-0.321,0.139-0.409,0.435-0.236,0.701c0.177,0.27,0.398,0.333,0.625,0.248c0.23-0.082,0.748-0.379,1.145-0.562
	c0.398-0.197,1.462-0.637,1.462-0.637l0.234,0.197l-0.026,0.242c0,0-0.369,0.301-0.491,0.613c-0.366,0.245-0.618,0.48-0.885,0.617
	c-0.268,0.137-0.554,0.312-0.878,0.447c-0.327,0.138-0.521,0.338-0.327,0.641c0.195,0.31,0.421,0.32,0.759,0.186
	C20.739,84.389,21.178,84.204,21.487,83.975z"/>
<path fill="#FFFFFF" d="M136.764,68.848c1.359,0.129,6.019,0.258,6.213-1.359c-0.971,0-4.466,0.259-6.602,0.065
	c-2.136-0.194-3.883-0.583-5.113-0.841c-1.229-0.259-2.071-0.453-4.013-0.129c-1.942,0.323-7.508,0.194-9.385,0.064
	c-1.877-0.129-3.948-0.065-5.825,0.518c-1.877,0.583-6.926,1.683-8.673,1.877c-1.747,0.194-3.883,0.518-5.501,0.13
	c-1.618-0.389-3.883-0.906-6.02-0.324c-0.323-1.359-0.324-3.883,1.165-4.013c1.747,0.324,1.942,0.389,2.848,0.259
	c0.906-0.129,1.165-2.33,1.23-4.336c0.906-0.259,1.424-0.583,1.359-0.971c-0.333-0.746-1.682-1.554-1.423-2.589
	c0.08-0.32,0.388-1.23,0.388-1.942s-0.647-2.718-1.294-3.042c0-0.712-1.036-3.625-5.501-3.625c-2.652,0-4.887,0.693-6.365,2.361
	c-0.515-0.628-1.254-1.375-1.791-1.261c-0.906,0.194-0.453,1.683-1.294,1.942c-0.842,0.259-0.971,1.229-0.906,2.136
	c-0.906,0.129-1.553,0.906-0.518,1.941c0.957,0.957,0.041,1.526,2.093,1.608c-0.44,0.176-0.938,0.712-0.863,2.267
	c0.129,2.718,1.294,3.107,2.201,3.625c0.906,0.518,0.647,2.913,0.388,3.883s-0.841,2.912-0.259,3.56
	c0.221-1.162,0.964-3.311,2.064-3.994c-0.323,1.413-1.092,3.892-1.092,5.944c0,2.524,1.035,8.479,2.913,12.88
	c1.877,4.401,3.301,7.896,0.064,11.714c-1.736,2.049-3.448,3.801-4.577,5.684H99.88c1.011-2.722,2.015-5.917,1.933-8.984
	c-0.129-4.854-1.164-10.356-0.647-11.909c0.518-1.554-0.13-3.948-2.071-5.048c2.848-0.518,5.695-1.424,6.925-2.007
	c1.229-0.582,5.955-2.33,10.097-2.136c4.142,0.194,9.255-0.259,10.809-0.841c1.554-0.582,2.331-0.906,3.69-0.324
	c1.359,0.583,2.071,0.582,3.625,0.518c1.553-0.065,3.301,0.065,3.43-0.971c1.812-0.194,3.818-0.453,3.689-1.359
	c-1.229,0.194-5.954,0-5.954,0S136.829,69.496,136.764,68.848z"/>
<g>
	<path fill="#FFFFFF" d="M22.551,131.66v-23.531h5.153l4.643,12.619c0.266,0.627,0.537,1.563,0.813,2.808h0.144
		c0.276-1.233,0.537-2.169,0.782-2.808l4.595-12.619h5.36v23.531h-3.909v-11.279c0-2.722,0.17-5.435,0.51-8.136H40.45l-5.488,15.044
		h-3.653l-5.424-14.964h-0.144c0.266,2.393,0.399,5.068,0.399,8.024v11.311H22.551z"/>
	<path fill="#FFFFFF" d="M54.569,131.66c-2.169-3.265-3.834-6.926-4.993-10.984c-1.16-4.058-1.739-8.149-1.739-12.276v-0.271h4.021
		v0.271c0,3.297,0.388,6.626,1.165,9.987c0.776,3.361,1.856,6.371,3.239,9.03h0.127c1.361-2.627,2.433-5.61,3.215-8.95
		c0.781-3.34,1.172-6.695,1.172-10.067v-0.271h3.893v0.271c0,4.18-0.606,8.288-1.819,12.324c-1.212,4.036-2.898,7.682-5.057,10.936
		H54.569z"/>
</g>
<g>
	<path fill="#FFFFFF" d="M68.778,121.547c0-0.889,0.202-1.658,0.605-2.307s0.964-1.152,1.681-1.511s1.533-0.538,2.45-0.538
		c0.762,0,1.463,0.047,2.103,0.143c0.64,0.096,1.295,0.266,1.967,0.511v2.749h-0.109c-0.572-0.227-1.143-0.413-1.715-0.558
		c-0.572-0.145-1.216-0.218-1.933-0.218c-1.188,0-1.783,0.463-1.783,1.388c0,0.454,0.202,0.871,0.605,1.252
		c0.404,0.381,1.209,0.917,2.416,1.606c0.989,0.562,1.74,1.207,2.252,1.933c0.512,0.726,0.769,1.547,0.769,2.463
		c0,1.434-0.436,2.545-1.306,3.334c-0.871,0.79-2.078,1.184-3.621,1.184c-0.78,0-1.583-0.084-2.409-0.252
		c-0.826-0.167-1.556-0.41-2.191-0.728v-2.681h0.109c0.853,0.381,1.604,0.645,2.252,0.79c0.648,0.145,1.254,0.218,1.817,0.218
		c1.379,0,2.069-0.54,2.069-1.62c0-0.717-0.635-1.452-1.905-2.205c-1.162-0.681-1.999-1.241-2.511-1.681s-0.91-0.933-1.191-1.477
		C68.918,122.8,68.778,122.201,68.778,121.547z"/>
	<path fill="#FFFFFF" d="M93.78,124.392c0,1.697-0.266,3.189-0.796,4.478c-0.531,1.289-1.259,2.284-2.184,2.987
		c-0.926,0.704-1.946,1.055-3.062,1.055c-1.125,0-2.101-0.322-2.926-0.966v5.934h-3.348v-15.475c0-2.114-0.068-3.756-0.204-4.927
		h2.926c0.19,0.862,0.313,2.105,0.368,3.729h0.054c0.436-1.306,1.005-2.302,1.708-2.987s1.586-1.027,2.647-1.027
		c0.989,0,1.837,0.272,2.545,0.816s1.263,1.345,1.667,2.402S93.78,122.795,93.78,124.392z M88.376,120.037
		c-0.626,0-1.227,0.42-1.803,1.259s-1.034,1.978-1.375,3.416s-0.511,3.042-0.511,4.811c0.671,0.536,1.502,0.803,2.491,0.803
		c1.025,0,1.819-0.501,2.382-1.504c0.562-1.003,0.844-2.389,0.844-4.158c0-1.624-0.166-2.801-0.497-3.532
		C89.576,120.402,89.066,120.037,88.376,120.037z"/>
	<path fill="#FFFFFF" d="M102.925,117.192c1.978,0,3.525,0.635,4.641,1.905c1.116,1.271,1.674,3.081,1.674,5.431
		c0,2.595-0.594,4.641-1.783,6.138c-1.189,1.497-2.795,2.246-4.818,2.246c-1.978,0-3.522-0.637-4.634-1.912
		c-1.112-1.274-1.667-3.087-1.667-5.437c0-2.613,0.579-4.662,1.735-6.145S100.847,117.192,102.925,117.192z M102.694,130.271
		c1.034,0,1.814-0.49,2.341-1.47s0.79-2.404,0.79-4.273c0-1.488-0.256-2.641-0.769-3.457c-0.513-0.817-1.245-1.225-2.198-1.225
		c-0.998,0-1.767,0.497-2.307,1.49c-0.54,0.994-0.81,2.402-0.81,4.226c0,1.452,0.263,2.6,0.79,3.443
		S101.777,130.271,102.694,130.271z"/>
	<path fill="#FFFFFF" d="M116.018,132.64h-3.28v-10.425c0-1.66-0.068-3.239-0.204-4.736h2.899c0.172,1.252,0.259,2.672,0.259,4.26
		h0.109c0.381-1.207,0.762-2.109,1.143-2.708c0.381-0.599,0.828-1.055,1.341-1.368c0.512-0.313,1.104-0.469,1.776-0.469
		c0.427,0,0.735,0.032,0.926,0.095v3.089h-0.136c-0.318-0.072-0.599-0.109-0.844-0.109c-1.352,0-2.354,0.828-3.008,2.484
		s-0.98,4.208-0.98,7.656V132.64z"/>
	<path fill="#FFFFFF" d="M123.585,119.982h-1.892v-1.334l1.892-1.143v-4.124l3.348-0.395v4.491h3.784v2.504h-3.784v7.73
		c0,1.688,0.517,2.531,1.552,2.531c0.762,0,1.515-0.159,2.259-0.476h0.109v2.313c-0.926,0.554-1.965,0.83-3.117,0.83
		c-1.289,0-2.303-0.403-3.042-1.211c-0.74-0.808-1.109-1.942-1.109-3.403V119.982z"/>
</g>
</svg>
