<?xml version="1.0" encoding="utf-8"?>
<!-- Generator: Adobe Illustrator 19.0.0, SVG Export Plug-In . SVG Version: 6.00 Build 0)  -->
<svg version="1.1" id="Calque_1" xmlns="http://www.w3.org/2000/svg" xmlns:xlink="http://www.w3.org/1999/xlink" x="0px" y="0px"
	 viewBox="0 0 79.4 86.9" style="enable-background:new 0 0 79.4 86.9;" xml:space="preserve">
<style type="text/css">
	.st0{fill:none;stroke:#E8441E;stroke-width:3;stroke-linecap:round;stroke-linejoin:round;stroke-miterlimit:10;}
</style>
<g id="XMLID_60_">
	<path id="XMLID_95_" class="st0" d="M44,69.5H16.6c-1.1,0-2-0.9-2-2v-46c0-1.1,0.9-2,2-2h9.9"/>
	<path id="XMLID_94_" class="st0" d="M46.6,19.5h10c1.1,0,2,0.9,2,2v28.9"/>
	<path id="XMLID_93_" class="st0" d="M44.6,17.5h-3.1c-0.5-2.3-2.5-4-4.9-4c-2.4,0-4.4,1.7-4.9,4h-3.1c-1.1,0-2,0.9-2,2v6h20v-6
		C46.6,18.4,45.7,17.5,44.6,17.5z"/>
	<polyline id="XMLID_92_" class="st0" points="50.6,58.4 50.6,25.5 47.6,25.5 	"/>
	<polyline id="XMLID_91_" class="st0" points="25.6,25.5 22.6,25.5 22.6,61.5 47.5,61.5 	"/>
	<line id="XMLID_90_" class="st0" x1="30.6" y1="33.5" x2="42.6" y2="33.5"/>
	<line id="XMLID_89_" class="st0" x1="30.6" y1="43.5" x2="42.6" y2="43.5"/>
	<line id="XMLID_88_" class="st0" x1="30.6" y1="53.5" x2="42.6" y2="53.5"/>
	<polygon id="XMLID_84_" class="st0" points="67.6,41.5 46.8,62.2 42.5,73.5 53.9,69.2 74.6,48.5 	"/>
	<line id="XMLID_61_" class="st0" x1="46.8" y1="62.2" x2="53.9" y2="69.2"/>
</g>
</svg>
