<?xml version="1.0" encoding="utf-8"?>
<!-- Generator: Adobe Illustrator 19.0.0, SVG Export Plug-In . SVG Version: 6.00 Build 0)  -->
<svg version="1.1" id="Calque_1" xmlns="http://www.w3.org/2000/svg" xmlns:xlink="http://www.w3.org/1999/xlink" x="0px" y="0px"
	 viewBox="0 0 79.4 86.9" style="enable-background:new 0 0 79.4 86.9;" xml:space="preserve">
<style type="text/css">
	.st0{fill:none;stroke:#E8441E;stroke-width:3;stroke-linecap:round;stroke-linejoin:round;stroke-miterlimit:10;}
</style>
<g id="XMLID_42_">
	<path id="XMLID_48_" class="st0" d="M24.1,17.4c-4.3-3.7-14-2.6-14,6c0,8.6,6,16,18.8,17.6"/>
	<path id="XMLID_47_" class="st0" d="M56.1,17.4c4.3-3.7,14-2.6,14,6c0,8.6-6,16-18.8,17.6"/>
	<path id="XMLID_46_" class="st0" d="M58.1,71.4c0,1.1-0.9,2-2,2h-32c-1.1,0-2-0.9-2-2v-12c0-1.1,0.9-2,2-2h32c1.1,0,2,0.9,2,2V71.4
		z"/>
	<line id="XMLID_45_" class="st0" x1="32.1" y1="65.4" x2="48.1" y2="65.4"/>
	<line id="XMLID_44_" class="st0" x1="40.1" y1="57.4" x2="40.1" y2="45.4"/>
	<path id="XMLID_43_" class="st0" d="M40.1,45.4L40.1,45.4c12,0,16-10,16-17.8V13.4h-32v14C24.1,35.4,28.1,45.4,40.1,45.4z"/>
</g>
</svg>
