<?xml version="1.0" encoding="utf-8"?>
<!-- Generator: Adobe Illustrator 19.0.0, SVG Export Plug-In . SVG Version: 6.00 Build 0)  -->
<svg version="1.1" id="Calque_1" xmlns="http://www.w3.org/2000/svg" xmlns:xlink="http://www.w3.org/1999/xlink" x="0px" y="0px"
	 viewBox="0 0 79.4 86.9" style="enable-background:new 0 0 79.4 86.9;" xml:space="preserve">
<style type="text/css">
	.st0{fill:none;stroke:#E8441E;stroke-width:3;stroke-linecap:round;stroke-linejoin:round;stroke-miterlimit:10;}
</style>
<g id="XMLID_79_">
	<line id="XMLID_77_" class="st0" x1="29.1" y1="21.5" x2="52.9" y2="21.5"/>
	<path id="XMLID_76_" class="st0" d="M29.1,25.2c0,0.9-0.7,1.6-1.6,1.6h-1.9c-0.9,0-1.6-0.7-1.6-1.6v-6.7c0-0.9,0.7-1.6,1.6-1.6h1.9
		c0.9,0,1.6,0.7,1.6,1.6V25.2z"/>
	<path id="XMLID_75_" class="st0" d="M58,25.2c0,0.9-0.7,1.6-1.6,1.6h-1.9c-0.9,0-1.6-0.7-1.6-1.6v-6.7c0-0.9,0.7-1.6,1.6-1.6h1.9
		c0.9,0,1.6,0.7,1.6,1.6V25.2z"/>
	<line id="XMLID_74_" class="st0" x1="14.3" y1="33.1" x2="67.9" y2="33.1"/>
	<g id="XMLID_87_">
		<rect id="XMLID_73_" x="24.1" y="42.1" class="st0" width="6.7" height="6.7"/>
		<rect id="XMLID_72_" x="24.1" y="55" class="st0" width="6.7" height="6.7"/>
	</g>
	<path id="XMLID_71_" class="st0" d="M58,21.5h8.3c0.9,0,1.6,0.7,1.6,1.6v45.8c0,0.9-0.7,1.6-1.6,1.6H15.9c-0.9,0-1.6-0.7-1.6-1.6
		V23.1c0-0.9,0.7-1.6,1.6-1.6h8.1"/>
	<g id="XMLID_83_">
		<rect id="XMLID_70_" x="37.7" y="42.1" class="st0" width="6.7" height="6.7"/>
		<rect id="XMLID_69_" x="37.7" y="55" class="st0" width="6.7" height="6.7"/>
	</g>
	<g id="XMLID_80_">
		<rect id="XMLID_68_" x="51.3" y="42.1" class="st0" width="6.7" height="6.7"/>
		<rect id="XMLID_1_" x="51.3" y="55" class="st0" width="6.7" height="6.7"/>
	</g>
</g>
</svg>
