<svg version="1.1" xmlns="http://www.w3.org/2000/svg" xmlns:xlink="http://www.w3.org/1999/xlink" x="0px" y="0px"
	 viewBox="-272 396.2 49.7 49.7" style="enable-background:new -272 396.2 49.7 49.7;" xml:space="preserve">
	<style type="text/css">
		.st0{fill:#FFFFFF;}
	</style>
	<path class="st0" d="M-246.4,401.5c-11,0-20,9-20,20s9,20,20,20s20-9,20-20S-235.3,401.5-246.4,401.5z M-246.4,438.4c-9.3,0-16.9-7.6-16.9-16.9
		c0-9.3,7.6-16.9,16.9-16.9c9.3,0,16.9,7.6,16.9,16.9C-229.5,430.8-237.1,438.4-246.4,438.4z"/>
	<path class="st0" d="M-241.6,418.4h-3.5v-2.5c0-0.8,0.8-1,1.2-1c0.4,0,2.2,0,2.2,0v-3.4l-2.6,0c-3.5,0-4.3,2.6-4.3,4.2v2.7h-2.6v3.5h2.6
		c0,4.5,0,9.5,0,9.5h3.5c0,0,0-5.1,0-9.5h2.9L-241.6,418.4z"/>
</svg>
