<?xml version="1.0" encoding="utf-8"?>
<!-- Generator: Adobe Illustrator 19.0.0, SVG Export Plug-In . SVG Version: 6.00 Build 0)  -->
<svg version="1.1" id="Calque_1" xmlns="http://www.w3.org/2000/svg" xmlns:xlink="http://www.w3.org/1999/xlink" x="0px" y="0px"
	 viewBox="0 0 79.4 86.9" style="enable-background:new 0 0 79.4 86.9;" xml:space="preserve">
<style type="text/css">
	.st0{fill:none;stroke:#E8441E;stroke-width:3;stroke-linecap:round;stroke-linejoin:round;stroke-miterlimit:10;}
</style>
<g id="XMLID_7_">
	<path id="XMLID_62_" class="st0" d="M72.5,42.8L63.2,33V18.2c0-0.8-0.6-1.4-1.4-1.4h-6.4c-0.8,0-1.4,0.6-1.4,1.4v5.1L42.1,10.6
		c-0.5-0.6-1.5-0.6-2,0L9.6,43c-0.4,0.4-0.5,1-0.3,1.5c0.2,0.5,0.7,0.8,1.3,0.8h5.5v29.4c0,0.8,0.6,1.4,1.4,1.4h16.4
		c0.8,0,1.4-0.6,1.4-1.4V59.5h11.5v15.2c0,0.8,0.6,1.4,1.4,1.4h16.4c0.8,0,1.4-0.6,1.4-1.4V45.3h5.7c0,0,0,0,0.1,0
		c0.8,0,1.4-0.6,1.4-1.4C73.1,43.4,72.8,43,72.5,42.8z"/>
</g>
</svg>
