<svg version="1.1" xmlns="http://www.w3.org/2000/svg" xmlns:xlink="http://www.w3.org/1999/xlink" x="0px" y="0px"
	 viewBox="-272 396.2 49.7 49.7" style="enable-background:new -272 396.2 49.7 49.7;" xml:space="preserve">
	<style type="text/css">
		.st0{fill:#FFFFFF;}
	</style>
	<path class="st0" d="M-240,411.1h-12.7c-2.2,0-4,1.8-4,4v4.2v8.5c0,2.2,1.8,4,4,4h12.7c2.2,0,4-1.8,4-4v-8.5v-4.2
		C-236,412.9-237.8,411.1-240,411.1z M-238.9,413.3l0.5,0v0.5v3.1l-3.5,0l0-3.5L-238.9,413.3z M-249.3,419.2c0.7-0.9,1.7-1.5,3-1.5
		c1.2,0,2.3,0.6,3,1.5c0.4,0.6,0.7,1.3,0.7,2.1c0,2-1.6,3.6-3.7,3.6c-2,0-3.7-1.6-3.6-3.7C-250,420.5-249.8,419.8-249.3,419.2z
		 M-238,427.7c0,1.1-0.9,2-2,2h-12.7c-1.1,0-2-0.9-2-2v-8.5h3.1c-0.3,0.7-0.4,1.4-0.4,2.1c0,3.1,2.5,5.7,5.7,5.7
		c3.1,0,5.7-2.5,5.7-5.7c0-0.8-0.2-1.5-0.4-2.1h3.1V427.7z"/>
	<path class="st0" d="M-246.4,401.5c-11,0-20,9-20,20s9,20,20,20s20-9,20-20S-235.3,401.5-246.4,401.5z M-246.4,438.4
			c-9.3,0-16.9-7.6-16.9-16.9c0-9.3,7.6-16.9,16.9-16.9c9.3,0,16.9,7.6,16.9,16.9C-229.5,430.8-237.1,438.4-246.4,438.4z"/>
</svg>
