<?xml version="1.0" standalone="no"?>
<!DOCTYPE svg PUBLIC "-//W3C//DTD SVG 20010904//EN"
 "http://www.w3.org/TR/2001/REC-SVG-20010904/DTD/svg10.dtd">
<svg version="1.0" xmlns="http://www.w3.org/2000/svg"
 width="260.000000pt" height="260.000000pt" viewBox="0 0 260.000000 260.000000"
 preserveAspectRatio="xMidYMid meet">
<metadata>
Created by potrace 1.11, written by Peter Selinger 2001-2013
</metadata>
<g transform="translate(0.000000,260.000000) scale(0.100000,-0.100000)"
fill="#000000" stroke="none">
<path d="M0 1300 l0 -1300 1300 0 1300 0 0 1300 0 1300 -1300 0 -1300 0 0
-1300z m570 118 l72 -222 72 220 72 219 97 3 97 3 0 -316 0 -315 -76 0 -77 0
7 213 6 212 -74 -210 -73 -210 -51 -3 -50 -3 -72 216 c-40 119 -74 215 -76
213 -2 -2 1 -76 6 -163 5 -88 10 -184 10 -212 l0 -53 -75 0 -75 0 0 315 0 315
94 0 95 0 71 -222z m683 175 c8 -27 36 -130 62 -230 27 -101 51 -183 55 -183
3 0 30 89 60 198 29 108 57 212 62 230 l9 32 74 0 c41 0 75 -3 75 -6 0 -3 -45
-145 -101 -315 l-100 -309 -79 0 -78 0 -16 48 c-22 69 -172 533 -180 560 -7
21 -6 22 68 22 l75 0 14 -47z m873 23 c59 -28 94 -71 101 -126 l6 -40 -72 0
c-63 0 -71 2 -71 19 0 57 -119 83 -165 36 -14 -13 -25 -28 -25 -33 0 -27 46
-61 117 -87 110 -40 146 -59 180 -99 61 -68 52 -169 -18 -230 -65 -55 -175
-71 -278 -40 -66 19 -137 82 -151 133 -17 61 -17 61 65 61 71 0 75 -1 75 -22
1 -45 45 -78 105 -78 61 0 95 25 95 71 0 37 -26 56 -128 94 -162 60 -209 109
-200 207 7 64 31 96 98 131 73 37 189 39 266 3z"/>
</g>
</svg>
